# xmcd
# 
# Track frame offsets:
#     150
#     17702
#     29743
#     49779
#     64525
#     82169
#     101151
#     110874
#     125042
#     140049
# 
# Disc length: 1994
# 
# Revision: 1
# Processed by: cddbd v1.5.2PL0 Copyright (c) Steve Scherf et al.
# Submitted via: BonkEnc v1.0.8
# 
DISCID=9907c80a
DTITLE=The Boss Hoss 1 - The Boss Hoss 1
DYEAR=2005
DGENRE=Country
TTITLE0=1
TTITLE1=2
TTITLE2=3
TTITLE3=4
TTITLE4=5
TTITLE5=6
TTITLE6=7
TTITLE7=8
TTITLE8=9
TTITLE9=10
EXTD=
EXTT0=
EXTT1=
EXTT2=
EXTT3=
EXTT4=
EXTT5=
EXTT6=
EXTT7=
EXTT8=
EXTT9=
PLAYORDER=
